<svg width="40" height="40" viewBox="0 0 40 40" fill="none" xmlns="http://www.w3.org/2000/svg">
<g clip-path="url(#clip0_46_420)">
<path d="M12.5 6.25H7.5C6.80964 6.25 6.25 6.80964 6.25 7.5V32.5C6.25 33.1904 6.80964 33.75 7.5 33.75H12.5C13.1904 33.75 13.75 33.1904 13.75 32.5V7.5C13.75 6.80964 13.1904 6.25 12.5 6.25Z" stroke="black" stroke-width="2" stroke-linecap="round" stroke-linejoin="round"/>
<path d="M6.25 12.5H13.75" stroke="black" stroke-width="2" stroke-linecap="round" stroke-linejoin="round"/>
<path d="M20 6.25H15C14.3096 6.25 13.75 6.80964 13.75 7.5V32.5C13.75 33.1904 14.3096 33.75 15 33.75H20C20.6904 33.75 21.25 33.1904 21.25 32.5V7.5C21.25 6.80964 20.6904 6.25 20 6.25Z" stroke="black" stroke-width="2" stroke-linecap="round" stroke-linejoin="round"/>
<path d="M13.75 27.5H21.25" stroke="black" stroke-width="2" stroke-linecap="round" stroke-linejoin="round"/>
<path d="M27.4275 5.84094L22.5775 7.14094C21.9078 7.32043 21.5105 8.0088 21.69 8.67844L28.19 32.9284C28.3695 33.5981 29.0578 33.9954 29.7275 33.8159L34.5775 32.5159C35.2471 32.3364 35.6445 31.6481 35.465 30.9784L28.965 6.72844C28.7855 6.0588 28.0971 5.66145 27.4275 5.84094Z" stroke="black" stroke-width="2" stroke-linecap="round" stroke-linejoin="round"/>
<path d="M26.75 28L34 26.0469" stroke="black" stroke-width="2" stroke-linecap="round" stroke-linejoin="round"/>
<path d="M22.875 13.5L30.125 11.5625" stroke="black" stroke-width="2" stroke-linecap="round" stroke-linejoin="round"/>
</g>
<defs>
<clipPath id="clip0_46_420">
<rect width="40" height="40" fill="white"/>
</clipPath>
</defs>
</svg>
