<svg width="40" height="40" viewBox="0 0 40 40" fill="none" xmlns="http://www.w3.org/2000/svg">
<g clip-path="url(#clip0_46_413)">
<path d="M12 8H10C9.46957 8 8.96086 7.78929 8.58579 7.41421C8.21071 7.03914 8 6.53043 8 6C8 5.46957 8.21071 4.96086 8.58579 4.58579C8.96086 4.21071 9.46957 4 10 4H32V2C32 1.46957 31.7893 0.960859 31.4142 0.585786C31.0391 0.210714 30.5304 0 30 0L8 0C6.93913 0 5.92172 0.421427 5.17157 1.17157C4.42143 1.92172 4 2.93913 4 4V36C4 38.2 5.8 40 8 40H32C33.0609 40 34.0783 39.5786 34.8284 38.8284C35.5786 38.0783 36 37.0609 36 36V10C36 9.46957 35.7893 8.96086 35.4142 8.58579C35.0391 8.21071 34.5304 8 34 8H20V24L16 20L12 24V8Z" fill="black"/>
</g>
<defs>
<clipPath id="clip0_46_413">
<rect width="40" height="40" fill="white"/>
</clipPath>
</defs>
</svg>
