<svg width="206" height="40" viewBox="0 0 206 40" fill="none" xmlns="http://www.w3.org/2000/svg">
<g clip-path="url(#clip0_46_44)">
<path d="M12 8H10C9.46957 8 8.96086 7.78929 8.58579 7.41421C8.21071 7.03914 8 6.53043 8 6C8 5.46957 8.21071 4.96086 8.58579 4.58579C8.96086 4.21071 9.46957 4 10 4H32V2C32 1.46957 31.7893 0.960859 31.4142 0.585786C31.0391 0.210714 30.5304 0 30 0L8 0C6.93913 0 5.92172 0.421427 5.17157 1.17157C4.42143 1.92172 4 2.93913 4 4V36C4 38.2 5.8 40 8 40H32C33.0609 40 34.0783 39.5786 34.8284 38.8284C35.5786 38.0783 36 37.0609 36 36V10C36 9.46957 35.7893 8.96086 35.4142 8.58579C35.0391 8.21071 34.5304 8 34 8H20V24L16 20L12 24V8Z" fill="black"/>
</g>
<path d="M57.4659 30V9.63636H64.5852C66.0038 9.63636 67.1738 9.88163 68.0952 10.3722C69.0166 10.8561 69.7027 11.509 70.1534 12.331C70.6042 13.1463 70.8295 14.0511 70.8295 15.0455C70.8295 15.9205 70.6738 16.643 70.3622 17.2131C70.0573 17.7831 69.6529 18.2339 69.1491 18.5653C68.652 18.8968 68.1117 19.142 67.5284 19.3011V19.5C68.1515 19.5398 68.7779 19.7585 69.4077 20.1562C70.0374 20.554 70.5644 21.1241 70.9886 21.8665C71.4129 22.6089 71.625 23.517 71.625 24.5909C71.625 25.6117 71.393 26.5298 70.929 27.3452C70.465 28.1605 69.7325 28.8068 68.7315 29.2841C67.7306 29.7614 66.428 30 64.8239 30H57.4659ZM59.9318 27.8125H64.8239C66.4347 27.8125 67.5781 27.5009 68.2543 26.8778C68.937 26.2481 69.2784 25.4858 69.2784 24.5909C69.2784 23.9015 69.1027 23.2652 68.7514 22.6818C68.4001 22.0919 67.8996 21.6212 67.25 21.2699C66.6004 20.9119 65.8314 20.733 64.9432 20.733H59.9318V27.8125ZM59.9318 18.5852H64.5057C65.2481 18.5852 65.9176 18.4394 66.5142 18.1477C67.1174 17.8561 67.5947 17.4451 67.946 16.9148C68.304 16.3845 68.483 15.7614 68.483 15.0455C68.483 14.1506 68.1714 13.3916 67.5483 12.7685C66.9252 12.1387 65.9375 11.8239 64.5852 11.8239H59.9318V18.5852ZM81.5632 30.3182C80.1844 30.3182 78.9747 29.9901 77.9339 29.3338C76.8999 28.6776 76.0911 27.7595 75.5078 26.5795C74.9311 25.3996 74.6428 24.0208 74.6428 22.4432C74.6428 20.8523 74.9311 19.4635 75.5078 18.277C76.0911 17.0904 76.8999 16.169 77.9339 15.5128C78.9747 14.8565 80.1844 14.5284 81.5632 14.5284C82.942 14.5284 84.1484 14.8565 85.1825 15.5128C86.2232 16.169 87.032 17.0904 87.6087 18.277C88.192 19.4635 88.4837 20.8523 88.4837 22.4432C88.4837 24.0208 88.192 25.3996 87.6087 26.5795C87.032 27.7595 86.2232 28.6776 85.1825 29.3338C84.1484 29.9901 82.942 30.3182 81.5632 30.3182ZM81.5632 28.2102C82.6106 28.2102 83.4723 27.9418 84.1484 27.4048C84.8246 26.8679 85.325 26.1619 85.6499 25.2869C85.9747 24.4119 86.1371 23.464 86.1371 22.4432C86.1371 21.4223 85.9747 20.4711 85.6499 19.5895C85.325 18.7079 84.8246 17.9953 84.1484 17.4517C83.4723 16.9081 82.6106 16.6364 81.5632 16.6364C80.5159 16.6364 79.6541 16.9081 78.978 17.4517C78.3018 17.9953 77.8014 18.7079 77.4766 19.5895C77.1518 20.4711 76.9893 21.4223 76.9893 22.4432C76.9893 23.464 77.1518 24.4119 77.4766 25.2869C77.8014 26.1619 78.3018 26.8679 78.978 27.4048C79.6541 27.9418 80.5159 28.2102 81.5632 28.2102ZM98.2702 30.3182C96.8915 30.3182 95.6817 29.9901 94.641 29.3338C93.6069 28.6776 92.7982 27.7595 92.2148 26.5795C91.6381 25.3996 91.3498 24.0208 91.3498 22.4432C91.3498 20.8523 91.6381 19.4635 92.2148 18.277C92.7982 17.0904 93.6069 16.169 94.641 15.5128C95.6817 14.8565 96.8915 14.5284 98.2702 14.5284C99.649 14.5284 100.855 14.8565 101.89 15.5128C102.93 16.169 103.739 17.0904 104.316 18.277C104.899 19.4635 105.191 20.8523 105.191 22.4432C105.191 24.0208 104.899 25.3996 104.316 26.5795C103.739 27.7595 102.93 28.6776 101.89 29.3338C100.855 29.9901 99.649 30.3182 98.2702 30.3182ZM98.2702 28.2102C99.3176 28.2102 100.179 27.9418 100.855 27.4048C101.532 26.8679 102.032 26.1619 102.357 25.2869C102.682 24.4119 102.844 23.464 102.844 22.4432C102.844 21.4223 102.682 20.4711 102.357 19.5895C102.032 18.7079 101.532 17.9953 100.855 17.4517C100.179 16.9081 99.3176 16.6364 98.2702 16.6364C97.2229 16.6364 96.3612 16.9081 95.685 17.4517C95.0089 17.9953 94.5084 18.7079 94.1836 19.5895C93.8588 20.4711 93.6964 21.4223 93.6964 22.4432C93.6964 23.464 93.8588 24.4119 94.1836 25.2869C94.5084 26.1619 95.0089 26.8679 95.685 27.4048C96.3612 27.9418 97.2229 28.2102 98.2702 28.2102ZM110.96 24.4318L110.92 21.5284H111.398L118.08 14.7273H120.983L113.864 21.9261H113.665L110.96 24.4318ZM108.773 30V9.63636H111.119V30H108.773ZM118.477 30L112.511 22.4432L114.182 20.8125L121.46 30H118.477ZM124.321 30V9.63636H126.787V18.7045H137.645V9.63636H140.111V30H137.645V20.892H126.787V30H124.321ZM149.224 30.358C148.256 30.358 147.378 30.1757 146.589 29.8111C145.8 29.4399 145.174 28.9062 144.71 28.2102C144.246 27.5076 144.014 26.6591 144.014 25.6648C144.014 24.7898 144.186 24.0805 144.531 23.5369C144.876 22.9867 145.336 22.5559 145.913 22.2443C146.49 21.9328 147.126 21.7008 147.822 21.5483C148.525 21.3892 149.231 21.2633 149.94 21.1705C150.868 21.0511 151.62 20.9616 152.197 20.902C152.78 20.8357 153.205 20.7263 153.47 20.5739C153.742 20.4214 153.877 20.1562 153.877 19.7784V19.6989C153.877 18.7178 153.609 17.9555 153.072 17.4119C152.542 16.8684 151.736 16.5966 150.656 16.5966C149.536 16.5966 148.657 16.8419 148.021 17.3324C147.385 17.8229 146.937 18.3466 146.679 18.9034L144.451 18.108C144.849 17.1799 145.379 16.4574 146.042 15.9403C146.712 15.4167 147.441 15.0521 148.23 14.8466C149.025 14.6345 149.807 14.5284 150.576 14.5284C151.067 14.5284 151.63 14.5881 152.267 14.7074C152.91 14.8201 153.529 15.0554 154.126 15.4134C154.729 15.7713 155.23 16.3116 155.627 17.0341C156.025 17.7566 156.224 18.7244 156.224 19.9375V30H153.877V27.9318H153.758C153.599 28.2633 153.334 28.6179 152.963 28.9957C152.592 29.3736 152.098 29.6951 151.481 29.9602C150.865 30.2254 150.112 30.358 149.224 30.358ZM149.582 28.25C150.51 28.25 151.292 28.0677 151.929 27.7031C152.572 27.3385 153.056 26.8679 153.38 26.2912C153.712 25.7145 153.877 25.108 153.877 24.4716V22.3239C153.778 22.4432 153.559 22.5526 153.221 22.652C152.89 22.7448 152.505 22.8277 152.068 22.9006C151.637 22.9669 151.216 23.0265 150.805 23.0795C150.401 23.1259 150.073 23.1657 149.821 23.1989C149.211 23.2784 148.641 23.4077 148.11 23.5866C147.587 23.759 147.163 24.0208 146.838 24.3722C146.52 24.7169 146.36 25.1875 146.36 25.7841C146.36 26.5994 146.662 27.2159 147.265 27.6335C147.875 28.0445 148.647 28.25 149.582 28.25ZM172.449 14.7273L166.801 30H164.415L158.767 14.7273H161.312L165.528 26.8977H165.688L169.903 14.7273H172.449ZM181.403 30.3182C179.931 30.3182 178.662 29.9934 177.594 29.3438C176.534 28.6875 175.715 27.7727 175.138 26.5994C174.568 25.4195 174.283 24.0473 174.283 22.483C174.283 20.9186 174.568 19.5398 175.138 18.3466C175.715 17.1468 176.517 16.2121 177.545 15.5426C178.579 14.8665 179.785 14.5284 181.164 14.5284C181.96 14.5284 182.745 14.661 183.521 14.9261C184.296 15.1913 185.002 15.6222 185.638 16.2188C186.275 16.8087 186.782 17.5909 187.16 18.5653C187.538 19.5398 187.727 20.7396 187.727 22.1648V23.1591H175.954V21.1307H185.34C185.34 20.2689 185.168 19.5 184.823 18.8239C184.485 18.1477 184.001 17.6141 183.371 17.223C182.748 16.8319 182.013 16.6364 181.164 16.6364C180.229 16.6364 179.421 16.8684 178.738 17.3324C178.062 17.7898 177.541 18.3864 177.177 19.1222C176.812 19.858 176.63 20.6468 176.63 21.4886V22.8409C176.63 23.9943 176.829 24.9721 177.227 25.7741C177.631 26.5696 178.191 27.1761 178.907 27.5938C179.623 28.0047 180.455 28.2102 181.403 28.2102C182.019 28.2102 182.576 28.1241 183.073 27.9517C183.577 27.7727 184.011 27.5076 184.376 27.1562C184.74 26.7983 185.022 26.3542 185.221 25.8239L187.488 26.4602C187.249 27.2292 186.848 27.9053 186.285 28.4886C185.721 29.0653 185.025 29.5161 184.197 29.8409C183.368 30.1591 182.437 30.3182 181.403 30.3182ZM193.643 20.8125V30H191.296V14.7273H193.563V17.1136H193.762C194.12 16.3381 194.664 15.715 195.393 15.2443C196.122 14.767 197.063 14.5284 198.217 14.5284C199.251 14.5284 200.156 14.7405 200.931 15.1648C201.707 15.5824 202.31 16.2188 202.741 17.0739C203.172 17.9223 203.387 18.9962 203.387 20.2955V30H201.04V20.4545C201.04 19.2547 200.729 18.3201 200.106 17.6506C199.483 16.9744 198.628 16.6364 197.54 16.6364C196.791 16.6364 196.122 16.7988 195.532 17.1236C194.949 17.4484 194.488 17.9223 194.15 18.5455C193.812 19.1686 193.643 19.9242 193.643 20.8125Z" fill="black"/>
<defs>
<clipPath id="clip0_46_44">
<rect width="40" height="40" fill="white"/>
</clipPath>
</defs>
</svg>
