<svg width="40" height="40" viewBox="0 0 40 40" fill="none" xmlns="http://www.w3.org/2000/svg">
<path d="M20.0001 19.9583C18.1667 19.9583 16.6667 19.375 15.5001 18.2083C14.3334 17.0416 13.7501 15.5416 13.7501 13.7083C13.7501 11.875 14.3334 10.375 15.5001 9.20831C16.6667 8.04165 18.1667 7.45831 20.0001 7.45831C21.8334 7.45831 23.3334 8.04165 24.5001 9.20831C25.6667 10.375 26.2501 11.875 26.2501 13.7083C26.2501 15.5416 25.6667 17.0416 24.5001 18.2083C23.3334 19.375 21.8334 19.9583 20.0001 19.9583ZM6.66675 33.3333V29.4166C6.66675 28.3611 6.93064 27.4583 7.45841 26.7083C7.98619 25.9583 8.66675 25.3889 9.50008 25C11.3612 24.1666 13.1459 23.5416 14.8542 23.125C16.5626 22.7083 18.2779 22.5 20.0001 22.5C21.7223 22.5 23.4306 22.7153 25.1251 23.1458C26.8195 23.5764 28.5962 24.1971 30.4551 25.0081C31.3246 25.4005 32.0217 25.9694 32.5464 26.715C33.0711 27.4605 33.3334 28.3611 33.3334 29.4166V33.3333H6.66675ZM9.16675 30.8333H30.8334V29.4166C30.8334 28.9722 30.7015 28.5486 30.4376 28.1458C30.1737 27.743 29.8473 27.4444 29.4584 27.25C27.6806 26.3889 26.0556 25.7986 24.5834 25.4791C23.1112 25.1597 21.5834 25 20.0001 25C18.4167 25 16.8751 25.1597 15.3751 25.4791C13.8751 25.7986 12.2501 26.3889 10.5001 27.25C10.1112 27.4444 9.79175 27.743 9.54175 28.1458C9.29175 28.5486 9.16675 28.9722 9.16675 29.4166V30.8333ZM20.0001 17.4583C21.0834 17.4583 21.9792 17.1041 22.6876 16.3958C23.3959 15.6875 23.7501 14.7916 23.7501 13.7083C23.7501 12.625 23.3959 11.7291 22.6876 11.0208C21.9792 10.3125 21.0834 9.95831 20.0001 9.95831C18.9167 9.95831 18.0209 10.3125 17.3126 11.0208C16.6042 11.7291 16.2501 12.625 16.2501 13.7083C16.2501 14.7916 16.6042 15.6875 17.3126 16.3958C18.0209 17.1041 18.9167 17.4583 20.0001 17.4583Z" fill="black"/>
</svg>
