<svg width="24" height="24" viewBox="0 0 24 24" fill="none" xmlns="http://www.w3.org/2000/svg">
<path d="M8.075 18.875L12 16.525L15.925 18.9L14.875 14.45L18.325 11.45L13.775 11.05L12 6.85L10.225 11.025L5.675 11.425L9.125 14.425L8.075 18.875ZM5.825 22L7.45 14.975L2 10.25L9.2 9.625L12 3L14.8 9.625L22 10.25L16.55 14.975L18.175 22L12 18.275L5.825 22Z" fill="#F3B514"/>
<path d="M12 4L14.1329 10.5643H21.035L15.4511 14.6213L17.584 21.1857L12 17.1287L6.41604 21.1857L8.54892 14.6213L2.96496 10.5643H9.86712L12 4Z" fill="#F3B514"/>
</svg>
